<?xml version="1.0" encoding="iso-8859-1"?>
<!-- Generator: Adobe Illustrator 19.0.0, SVG Export Plug-In . SVG Version: 6.00 Build 0)  -->
<svg version="1.1" id="Capa_1" xmlns="http://www.w3.org/2000/svg" xmlns:xlink="http://www.w3.org/1999/xlink" x="0px" y="0px"
	 viewBox="0 0 512.037 512.037" style="enable-background:new 0 0 512.037 512.037;" xml:space="preserve">
<g>
	<g>
		<g>
			<rect x="266.703" y="437.352" width="21.333" height="21.333"/>
			<rect x="298.703" y="437.352" width="21.333" height="21.333"/>
			<path d="M501.37,320.018h-42.667c-1.624-0.013-3.229,0.344-4.693,1.045c-14.569,7.958-28.17,17.572-40.533,28.651
				c-15.723,14.784-34.015,26.572-53.973,34.784c-7.274,2.171-14.638,4.004-22.066,5.5l-14.201-170.407
				c-2.23-25.111-21.528-44.917-45.867-48.367V96.018c-0.047-41.218-33.449-74.62-74.667-74.667h-64
				c-41.218,0.047-74.62,33.449-74.667,74.667v75.206c-24.339,3.45-43.637,23.256-45.867,48.367L0.037,436.466
				c-0.026,0.307-0.038,0.614-0.037,0.922c0.02,5.891,4.812,10.65,10.703,10.63h224v32c0,5.891,4.776,10.667,10.667,10.667h128
				c2.106-0.003,4.165-0.627,5.92-1.792l79.413-52.949v44.075c0,5.891,4.776,10.667,10.667,10.667h32
				c5.891,0,10.667-4.776,10.667-10.667V330.685C512.037,324.794,507.261,320.018,501.37,320.018z M234.703,234.685v-42.667h21.333
				v42.667H234.703z M85.37,96.018c0.035-29.441,23.893-53.298,53.333-53.333h64c29.441,0.035,53.298,23.893,53.333,53.333v74.667
				h-32H117.37h-32V96.018z M85.37,234.685v-42.667h21.333v42.667H85.37z M239.482,426.685H22.298l17.099-205.323
				c1.253-14.06,11.421-25.345,24.64-28.474v52.463c0,5.891,4.776,10.667,10.667,10.667H85.37v10.667h21.333v-10.667h10.667
				c5.891,0,10.667-4.776,10.667-10.667v-53.333h85.333v53.333c0,5.891,4.776,10.667,10.667,10.667h10.667v10.667h21.333v-10.667
				h10.667c5.891,0,10.667-4.776,10.667-10.667v-52.463c13.219,3.129,23.387,14.414,24.64,28.474l14.308,171.949
				c-5.849,0.663-11.724,1.126-17.615,1.373C267.018,394.685,247.766,409.051,239.482,426.685z M490.703,469.352h-10.667v-53.333
				c-0.004-2.087-0.62-4.128-1.772-5.868c-3.252-4.912-9.87-6.258-14.782-3.006l-93.312,62.208H256.037v-21.333
				c0-14.773,11.179-32,42.667-32c22.781-0.862,45.361-4.608,67.2-11.147c22.667-8.883,43.432-22.007,61.184-38.667
				c10.563-9.349,21.993-17.671,34.133-24.853h29.483V469.352z"/>
			<rect x="53.37" y="394.685" width="21.333" height="21.333"/>
			<rect x="53.37" y="362.685" width="21.333" height="21.333"/>
			<path d="M320.045,192.01c-0.005,5.891,4.768,10.67,10.659,10.675c0.586,0.003,1.172-0.047,1.749-0.149l46.549-7.758
				l-26.427,79.197l20.226,6.749l32.031-95.991l-0.02-0.007c0.356-1.065,0.558-2.198,0.558-3.374h21.333
				c0.001,1.175,0.202,2.307,0.558,3.372l-0.01,0.003l32.001,96.001l20.228-6.743l-26.403-79.208l46.544,7.757
				c0.577,0.103,1.163,0.153,1.749,0.149c1.143-0.001,2.278-0.185,3.363-0.547c5.589-1.862,8.611-7.902,6.749-13.491l-9.536-28.629
				l9.536-28.651c0.539-1.634,0.675-3.375,0.395-5.073c-0.956-5.813-6.444-9.75-12.257-8.794l-46.176,7.691
				c-9.364,1.535-17.208,7.056-21.931,14.649c-1.447-0.733-3.077-1.155-4.81-1.155H405.37c-1.737,0-3.371,0.424-4.82,1.16
				c-4.724-7.585-12.564-13.098-21.921-14.632l-46.176-7.691c-1.698-0.279-3.439-0.144-5.073,0.395
				c-5.595,1.845-8.634,7.877-6.788,13.471l9.536,28.629l-9.536,28.629C320.23,189.732,320.046,190.867,320.045,192.01z
				 M448.037,156.754c0.002-5.211,3.767-9.658,8.907-10.517l28.704-4.789l-5.056,15.2c-0.747,2.185-0.747,4.556,0,6.741l5.056,15.2
				l-37.611-6.272V156.754z M351.482,156.648l-5.056-15.2l28.704,4.789c5.139,0.86,8.905,5.307,8.907,10.517v15.563l-37.611,6.272
				l5.056-15.2C352.229,161.204,352.229,158.833,351.482,156.648z"/>
		</g>
	</g>
</g>
<g>
</g>
<g>
</g>
<g>
</g>
<g>
</g>
<g>
</g>
<g>
</g>
<g>
</g>
<g>
</g>
<g>
</g>
<g>
</g>
<g>
</g>
<g>
</g>
<g>
</g>
<g>
</g>
<g>
</g>
</svg>
